<?xml version="1.0" encoding="UTF-8"?>
<svg width="256" height="256" viewBox="0 0 256 256" fill="none" xmlns="http://www.w3.org/2000/svg" role="img" aria-label="Kitten Icon">
  <defs>
    <linearGradient id="kittenGrad" x1="0" y1="0" x2="256" y2="256" gradientUnits="userSpaceOnUse">
      <stop offset="0%" stop-color="#7c3aed"/>
      <stop offset="100%" stop-color="#06b6d4"/>
    </linearGradient>
    <clipPath id="clip">
      <rect width="256" height="256" rx="48" ry="48"/>
    </clipPath>
    <filter id="shadow" x="-20%" y="-20%" width="140%" height="140%" color-interpolation-filters="sRGB">
      <feDropShadow dx="0" dy="4" stdDeviation="8" flood-color="#000" flood-opacity="0.25"/>
    </filter>
  </defs>

  <g clip-path="url(#clip)">
    <!-- Background -->
    <rect width="256" height="256" fill="url(#kittenGrad)"/>

    <!-- Simplified kitten silhouette -->
    <!-- Ears -->
    <path d="M86 72 L108 46 L116 86 Z" fill="#ffffff" opacity="0.95" filter="url(#shadow)"/>
    <path d="M170 72 L148 46 L140 86 Z" fill="#ffffff" opacity="0.95" filter="url(#shadow)"/>

    <!-- Head -->
    <circle cx="128" cy="112" r="48" fill="#ffffff" opacity="0.98"/>

    <!-- Eyes -->
    <circle cx="110" cy="110" r="6" fill="#1f2937"/>
    <circle cx="146" cy="110" r="6" fill="#1f2937"/>

    <!-- Nose -->
    <path d="M128 122 l8 6 h-16 z" fill="#ef4444"/>

    <!-- Whiskers -->
    <path d="M72 120 H108" stroke="#1f2937" stroke-width="4" stroke-linecap="round" opacity="0.7"/>
    <path d="M76 132 H110" stroke="#1f2937" stroke-width="4" stroke-linecap="round" opacity="0.6"/>
    <path d="M184 120 H148" stroke="#1f2937" stroke-width="4" stroke-linecap="round" opacity="0.7"/>
    <path d="M180 132 H146" stroke="#1f2937" stroke-width="4" stroke-linecap="round" opacity="0.6"/>

    <!-- Body (minimal) -->
    <path d="M84 164 q44 36 88 0 v28 q-44 24 -88 0 z" fill="#ffffff" opacity="0.95"/>

    <!-- Subtle highlight -->
    <ellipse cx="128" cy="208" rx="64" ry="10" fill="#000" opacity="0.1"/>
  </g>
</svg>
